<?xml version="1.0" encoding="utf-8"?>
<!-- Generator: Adobe Illustrator 24.2.1, SVG Export Plug-In . SVG Version: 6.00 Build 0)  -->
<svg version="1.1" id="Camada_1" xmlns="http://www.w3.org/2000/svg" xmlns:xlink="http://www.w3.org/1999/xlink" x="0px" y="0px"
	 viewBox="0 0 60.6 63.7" style="enable-background:new 0 0 60.6 63.7;" xml:space="preserve">
<style type="text/css">
	.st0{fill:#FF0000;}
</style>
<path class="st0" d="M30.3,0L30.3,0l0.5,0.3l0.7,1l0.8,1.9l0.6,2.5l0.2,2.5l0.1,2.7v11.4l6.5,4.6l-0.3-0.8l-0.2,0.3L39,26.1
	l-0.2,0.1l-0.1-0.3L38.5,25l-0.1-1.3v-1.6l0.1-1.2l0.1-0.4l0.2-0.2H42l0.2,0.2l0.1,0.4l0.2,1.2v1.6L42.4,25L42,26.4l-0.1-0.3
	l-0.1,0.3l-0.1-0.3l-0.2,0.3l-0.2-0.3l-0.4,1.6l17.5,12.2l0.6,0.6l0.4,0.6l1.2,2v1L59,42.7l-0.7-0.5l-0.9-0.5l-7.5-3.2l-0.1,0.8
	l-0.2,0.3L49.3,39l-0.1-0.8l-3.8-1.6l-0.1,0.8l-0.2,0.3L44.8,37l-0.1-0.7l-3.2-1.4h-2l-0.1,0.7L39.2,36L39,35.6l-0.1-0.7h-5.7v13
	l-0.1,1.8L33,51.3l-0.5,3.3V55l0.2,0.4l7,6.4l0.2,0.3l0.1,0.3l0.4,1.3l-9.2-3.4l-0.7,2.9h-0.4l-0.7-2.9l-9.2,3.4l0.4-1.3l0.1-0.3
	l0.2-0.3l7-6.4l0.2-0.4v-0.4l-0.5-3.3l-0.1-1.7l-0.1-1.7v-13h-5.7l-0.1,0.7l-0.2,0.5l-0.2-0.5l-0.1-0.7h-2l-3.3,1.4l-0.1,0.6
	l-0.3,0.6l-0.2-0.3l-0.1-0.7l-3.6,1.7l-0.1,0.6l-0.3,0.6l-0.2-0.3l-0.1-0.6l-7.6,3.2l-0.9,0.5l-0.7,0.5L0,44.1v-1l1.2-2l0.4-0.6
	l0.6-0.6l17.5-12.2l-0.4-1.6l-0.2,0.3l-0.2-0.3l-0.1,0.3l-0.1-0.3l-0.1,0.3L18.3,25l-0.1-1.3v-1.6l0.1-1.2l0.1-0.4l0.2-0.2h3.2
	l0.2,0.2l0.1,0.4l0.1,1.2v1.6L22.1,25l-0.2,0.9l-0.1,0.3l-0.2-0.1l-0.2,0.3l-0.2-0.3l-0.3,0.8l6.5-4.6V10.9l0.1-2.7l0.2-2.5l0.6-2.5
	l0.8-1.9l0.7-1L30.3,0L30.3,0z"/>
</svg>
